<svg width="14" height="15" viewBox="0 0 14 15" fill="none" xmlns="http://www.w3.org/2000/svg">
<path d="M8.3125 1.5625C8.3125 0.851562 7.71094 0.25 7 0.25C6.26172 0.25 5.6875 0.851562 5.6875 1.5625C5.6875 2.30078 6.26172 2.875 7 2.875C7.71094 2.875 8.3125 2.30078 8.3125 1.5625ZM7 11.625C6.26172 11.625 5.6875 12.2266 5.6875 12.9375C5.6875 13.6758 6.26172 14.25 7 14.25C7.71094 14.25 8.3125 13.6758 8.3125 12.9375C8.3125 12.2266 7.71094 11.625 7 11.625ZM12.6875 5.9375C11.9492 5.9375 11.375 6.53906 11.375 7.25C11.375 7.98828 11.9492 8.5625 12.6875 8.5625C13.3984 8.5625 14 7.98828 14 7.25C14 6.53906 13.3984 5.9375 12.6875 5.9375ZM2.625 7.25C2.625 6.53906 2.02344 5.9375 1.3125 5.9375C0.574219 5.9375 0 6.53906 0 7.25C0 7.98828 0.574219 8.5625 1.3125 8.5625C2.02344 8.5625 2.625 7.98828 2.625 7.25ZM2.95312 9.98438C2.24219 9.98438 1.64062 10.5586 1.64062 11.2969C1.64062 12.0078 2.24219 12.6094 2.95312 12.6094C3.69141 12.6094 4.26562 12.0078 4.26562 11.2969C4.26562 10.5586 3.69141 9.98438 2.95312 9.98438ZM11.0195 9.98438C10.2812 9.98438 9.70703 10.5586 9.70703 11.2969C9.70703 12.0078 10.2812 12.6094 11.0195 12.6094C11.7305 12.6094 12.332 12.0078 12.332 11.2969C12.332 10.5586 11.7305 9.98438 11.0195 9.98438ZM2.95312 1.91797C2.24219 1.91797 1.64062 2.51953 1.64062 3.23047C1.64062 3.96875 2.24219 4.54297 2.95312 4.54297C3.69141 4.54297 4.26562 3.96875 4.26562 3.23047C4.26562 2.51953 3.69141 1.91797 2.95312 1.91797Z" fill="white" fill-opacity="0.35"/>
</svg>
